<svg width="61" height="24" viewBox="0 0 61 24" fill="none" xmlns="http://www.w3.org/2000/svg">
<path fill-rule="evenodd" clip-rule="evenodd" d="M20.0108 19.9749H4.06567L1.99805 12.2584L4.06567 4.54199H20.0108L21.998 10.3901H13.6982L11.885 5.0539L9.95453 12.2584L11.885 19.463L13.6982 14.1268H21.998L20.0108 19.9749Z" fill="black"/>
<path d="M29.9888 13.2373V14.2999C29.9888 14.4214 29.9736 14.5124 29.9433 14.5884C29.8977 14.7553 29.7914 14.8768 29.5486 14.8768C29.4575 14.8768 29.3816 14.8464 29.3361 14.8008C29.2298 14.6794 29.1539 14.5276 29.1539 14.2999V9.70028C29.1539 9.59401 29.1691 9.50294 29.1994 9.41187C29.2601 9.27524 29.3512 9.12346 29.5486 9.12346C29.67 9.12346 29.7611 9.16897 29.8218 9.21453C29.9433 9.33596 29.9888 9.48778 29.9888 9.70028V10.7781H31.0666V9.70028C31.0514 9.39667 30.9907 9.10826 30.8693 8.86536C30.7782 8.65286 30.6264 8.44033 30.4138 8.27334C30.2013 8.12156 29.9129 8.01529 29.5334 8.01529C29.1539 8.01529 28.8503 8.12156 28.6378 8.27334C28.4252 8.44033 28.2886 8.65286 28.1975 8.86536C28.0761 9.10826 28.0153 9.39667 28.0002 9.70028V14.2999C28.0153 14.6187 28.0761 14.9071 28.1975 15.15C28.2886 15.3625 28.4252 15.5751 28.6378 15.7268C28.8503 15.8938 29.1539 16.0001 29.5334 16.0001C29.9129 16.0001 30.2013 15.8938 30.4138 15.7268C30.6264 15.5751 30.7782 15.3625 30.8693 15.15C30.9907 14.9071 31.0514 14.6187 31.0666 14.2999V13.2373H29.9888ZM33.7838 15.909H34.9376V8.10636H33.7838V11.3246H32.9034V8.10636H31.7497V15.909H32.9034V12.5086H33.7838V15.909ZM35.7876 15.909H36.9414V8.10636H35.7876V15.909ZM39.2943 12.3872L39.2487 12.7212H39.188L39.1425 12.3872L38.5656 8.0912H37.4575L38.6416 15.909H39.7952L40.9793 8.0912H39.8712L39.2943 12.3872ZM42.3 15.909L42.5125 14.3151H43.6207L43.8332 15.909H44.9413L43.7573 8.0912H42.3607L41.1766 15.909H42.3ZM43.4689 13.1007H42.6795L43.0134 10.6415L43.0438 10.4289H43.1046L43.1349 10.6415L43.4689 13.1007ZM45.4878 15.8938H48.1596V14.8312H46.6415V8.0912H45.4878V15.8938ZM51.818 15.8938L51.0894 12.114C51.5296 11.8103 51.7269 11.1121 51.7269 10.3379C51.7269 8.8502 51.1349 8.076 49.7687 8.076H48.615V15.8938H49.7687V12.5997H50.0723L50.6795 15.8938H51.818ZM50.6036 10.3834C50.6036 10.9299 50.467 11.2183 50.3 11.3701C50.133 11.5067 49.9205 11.5371 49.7535 11.5371V9.21453C49.9205 9.21453 50.133 9.22969 50.3 9.38151C50.467 9.5333 50.6036 9.82175 50.6036 10.3834ZM52.4404 15.8938H53.5941V8.076H52.4404V15.8938ZM56.3569 13.2221V14.2999C56.3569 14.4062 56.3417 14.5124 56.3114 14.5884C56.2658 14.7401 56.1596 14.8616 55.9167 14.8616C55.8256 14.8616 55.7497 14.8312 55.7041 14.7857C55.5979 14.6642 55.5372 14.5124 55.522 14.2999V9.70028C55.5372 9.59401 55.5372 9.48778 55.5675 9.41187C55.6283 9.27524 55.7193 9.12346 55.9167 9.12346C56.0381 9.12346 56.1292 9.15381 56.1899 9.19933C56.3114 9.33596 56.3569 9.48778 56.3569 9.70028V10.7629H57.4347V9.70028C57.4195 9.38151 57.3588 9.09306 57.2373 8.8502C57.1463 8.63767 56.9945 8.42513 56.7819 8.27334C56.5694 8.10636 56.281 8.00009 55.9015 8.00009C55.522 8.00009 55.2184 8.10636 55.0058 8.27334C54.7933 8.42513 54.6567 8.63767 54.5656 8.8502C54.4442 9.09306 54.3835 9.38151 54.3683 9.70028V14.2999C54.3835 14.6187 54.4442 14.9071 54.5656 15.15C54.6567 15.3625 54.7933 15.5599 55.0058 15.7117C55.2184 15.8938 55.522 15.9849 55.9015 15.9849C56.281 15.9849 56.5694 15.8938 56.7819 15.7117C56.9945 15.5599 57.1463 15.3625 57.2373 15.15C57.3588 14.9071 57.4195 14.6187 57.4347 14.2999V13.2221H56.3569Z" fill="black"/>
</svg>
