<svg width="24" height="24" viewBox="0 0 24 24" fill="none" xmlns="http://www.w3.org/2000/svg">
<path fill-rule="evenodd" clip-rule="evenodd" d="M18.9997 3H9.00035C8.20624 3 7.44316 3.31377 6.8799 3.87612C6.31592 4.4384 6 5.20126 6 5.9964V15H3V17.9675C3 18.7713 3.31912 19.543 3.88829 20.1119C4.45715 20.6806 5.22857 21 6.0329 21H15L15.002 20.9996C16.6573 20.9996 18 19.6569 18 18.0016V10H22V6C22 5.20421 21.6838 4.44134 21.1215 3.87885C20.5589 3.3161 19.7953 3 18.9997 3ZM18 6C18 5.73487 18.1053 5.48051 18.293 5.29284C18.4802 5.1055 18.7346 5.00007 18.9997 5C19.265 5 19.5197 5.10544 19.707 5.29284C19.8946 5.48051 20 5.73487 20 6V8H18V6ZM5 17H12V18.0016C12 18.3516 12.06 18.6877 12.1704 19H6.0329C5.7588 19 5.496 18.8912 5.30224 18.6975C5.10877 18.5041 5 18.2414 5 17.9675V17Z" fill="white"/>
</svg>
